<svg id="Layer_1" data-name="Layer 1" xmlns="http://www.w3.org/2000/svg" viewBox="0 0 404.48 146.27"><defs><style>.cls-1{fill:#9bca3b;}</style></defs><title>nepali101-logo</title><path class="cls-1" d="M47.92,85.61h-12V60q0-4.75-1.69-7.13t-5.38-2.38q-5,0-7.27,3.36T19.36,64.95V85.61h-12V41.69h9.15l1.61,5.62h.67a12.66,12.66,0,0,1,5.52-4.81,18.81,18.81,0,0,1,8-1.63Q40,40.86,43.95,45t4,12Z"/><path class="cls-1" d="M75.3,86.4q-10.61,0-16.58-5.85T52.75,64q0-11,5.52-17.07t15.26-6q9.31,0,14.5,5.3t5.19,14.65v5.81H64.89a11.53,11.53,0,0,0,3,8q2.83,2.87,7.94,2.87a32.94,32.94,0,0,0,7.5-.82A37.56,37.56,0,0,0,90.74,74v9.27A28.15,28.15,0,0,1,84,85.63,42.35,42.35,0,0,1,75.3,86.4Zm-1.69-37a7.6,7.6,0,0,0-6,2.42,11.18,11.18,0,0,0-2.47,6.86H82a10,10,0,0,0-2.32-6.86A7.85,7.85,0,0,0,73.61,49.39Z"/><path class="cls-1" d="M122.25,86.4q-7.74,0-12.14-5.62h-.63q.63,5.5.63,6.36v17.8h-12V41.69h9.74l1.69,5.7h.55q4.2-6.52,12.45-6.52a14.25,14.25,0,0,1,12.18,6q4.4,6,4.4,16.7a33,33,0,0,1-2.06,12.22,17.14,17.14,0,0,1-5.87,7.9A15.05,15.05,0,0,1,122.25,86.4Zm-3.54-35.95q-4.44,0-6.48,2.73t-2.12,9v1.3q0,7.07,2.1,10.14t6.66,3.06q8.05,0,8.05-13.28,0-6.48-2-9.72A6.77,6.77,0,0,0,118.72,50.45Z"/><path class="cls-1" d="M175.33,85.61l-2.32-6h-.31a17.7,17.7,0,0,1-6.23,5.28,20.12,20.12,0,0,1-8.35,1.47q-6.33,0-10-3.61t-3.63-10.29q0-7,4.89-10.31t14.75-3.67l7.62-.24V56.34q0-6.68-6.84-6.68-5.26,0-12.37,3.18l-4-8.09a35.7,35.7,0,0,1,16.81-4q8.84,0,13.55,3.85t4.71,11.71V85.61Zm-3.54-20.35-4.64.16q-5.22.16-7.78,1.89a5.92,5.92,0,0,0-2.55,5.26q0,5.07,5.81,5.07a9.21,9.21,0,0,0,6.66-2.4,8.42,8.42,0,0,0,2.49-6.36Z"/><path class="cls-1" d="M201.58,85.61h-12V24.48h12Z"/><path class="cls-1" d="M207.2,30.34q0-5.85,6.52-5.85t6.52,5.85a5.71,5.71,0,0,1-1.63,4.34,6.85,6.85,0,0,1-4.89,1.55Q207.2,36.23,207.2,30.34Zm12.49,55.27h-12V41.69h12Z"/><path class="cls-1" d="M311.16,39q-2.5,0-3.56,3.22T306.54,54q0,8.49,1.06,11.68t3.56,3.19q2.53,0,3.58-3.29t1-11.58q0-8.32-1.06-11.66T311.16,39Z"/><path class="cls-1" d="M375.25,8.91h-132a12.41,12.41,0,0,0-12.38,12.38V90.42a12.41,12.41,0,0,0,12.38,12.38h21.42l12.56,34.41,7.93-34.41h90.11a12.41,12.41,0,0,0,12.38-12.38V21.29A12.41,12.41,0,0,0,375.25,8.91Zm-93.47,70H268V52.44q0-4.83.21-8.84a29.4,29.4,0,0,1-3.15,3.22l-5.69,4.69-7-8.63,17.19-14h12.19Zm43-5.5q-4.45,6.18-13.63,6.18-9,0-13.53-6.46T293.08,54q0-13.36,4.45-19.59t13.63-6.23q8.94,0,13.51,6.49T329.25,54Q329.25,67.27,324.79,73.45ZM364,78.95H350.24V52.44q0-4.83.21-8.84a29.4,29.4,0,0,1-3.15,3.22l-5.69,4.69-7-8.63,17.19-14H364Z"/><path class="cls-1" d="M290.67,126.93a3.32,3.32,0,0,1,1-2.58,4.11,4.11,0,0,1,2.88-.91,3.87,3.87,0,0,1,2.76.91,3.37,3.37,0,0,1,1,2.58,3.3,3.3,0,0,1-1,2.55,3.86,3.86,0,0,1-2.73.92,4.15,4.15,0,0,1-2.83-.91A3.22,3.22,0,0,1,290.67,126.93Z"/><path class="cls-1" d="M311.66,130.3q-5,0-7.65-2.72t-2.6-7.82q0-5.12,2.81-7.93t8-2.81a15,15,0,0,1,6.73,1.56l-2.09,5.24a22.66,22.66,0,0,0-2.38-.9,7.66,7.66,0,0,0-2.27-.34,3.07,3.07,0,0,0-2.67,1.34,6.53,6.53,0,0,0-.94,3.79q0,4.93,3.65,4.93a11,11,0,0,0,6-1.81v5.64A11.65,11.65,0,0,1,311.66,130.3Z"/><path class="cls-1" d="M342,119.62q0,5-2.71,7.86a10,10,0,0,1-7.59,2.82,9.84,9.84,0,0,1-7.45-2.88,10.8,10.8,0,0,1-2.77-7.8q0-5,2.71-7.81t7.61-2.78a10.86,10.86,0,0,1,5.35,1.29,8.8,8.8,0,0,1,3.58,3.69A11.91,11.91,0,0,1,342,119.62Zm-13.32,0a9.12,9.12,0,0,0,.71,4,2.46,2.46,0,0,0,2.38,1.39,2.39,2.39,0,0,0,2.33-1.39,9.45,9.45,0,0,0,.68-4,9,9,0,0,0-.69-4,2.73,2.73,0,0,0-4.7,0A8.75,8.75,0,0,0,328.64,119.62Z"/><path class="cls-1" d="M371.23,129.94V118.76a6.69,6.69,0,0,0-.57-3.13,1.91,1.91,0,0,0-1.8-1,2.54,2.54,0,0,0-2.4,1.4,9.53,9.53,0,0,0-.76,4.37v9.58h-7.11V118.76a7,7,0,0,0-.54-3.13,1.84,1.84,0,0,0-1.76-1,2.55,2.55,0,0,0-2.43,1.49,11.37,11.37,0,0,0-.76,4.86v9H346V109.38h5.35l.89,2.54h.42a5.3,5.3,0,0,1,2.37-2.16,8.06,8.06,0,0,1,3.53-.74q4.45,0,6.24,2.7h.56a5.81,5.81,0,0,1,2.42-2,8.06,8.06,0,0,1,3.42-.72q3.65,0,5.39,1.87t1.74,5.68v13.37Z"/></svg>